<?xml version="1.0" standalone="no"?>
<!DOCTYPE svg PUBLIC "-//W3C//DTD SVG 20010904//EN"
 "http://www.w3.org/TR/2001/REC-SVG-20010904/DTD/svg10.dtd">
<svg version="1.0" xmlns="http://www.w3.org/2000/svg"
 width="269.000000pt" height="247.000000pt" viewBox="0 0 269.000000 247.000000"
 preserveAspectRatio="xMidYMid meet">

<g transform="translate(0.000000,247.000000) scale(0.100000,-0.100000)"
fill="#000000" stroke="none">
<path d="M1030 2161 c132 -41 320 -139 440 -229 157 -119 380 -377 380 -441 0
-15 -34 -41 -130 -100 -71 -45 -160 -101 -197 -125 -199 -129 -637 -396 -649
-396 -8 0 -14 4 -14 8 0 4 32 84 71 178 40 93 87 205 105 249 48 115 49 115
124 -80 13 -33 27 -65 32 -72 12 -15 191 85 196 109 2 10 -18 66 -44 125 -67
155 -253 533 -262 533 -4 0 -37 -64 -74 -142 -59 -127 -194 -420 -218 -473
-77 -171 -132 -296 -235 -531 -68 -154 -151 -338 -184 -407 -33 -70 -55 -127
-49 -127 6 0 42 25 80 56 38 31 99 79 136 107 37 28 128 98 202 155 74 57 225
172 334 255 109 84 261 200 336 258 383 296 462 353 479 342 9 -5 33 -55 55
-109 129 -329 139 -668 30 -993 -8 -24 -13 -46 -10 -48 11 -12 103 175 141
288 48 139 60 223 59 404 0 151 -3 182 -27 272 -14 55 -44 143 -67 195 -22 51
-40 100 -40 108 0 9 50 53 110 99 61 46 109 86 106 88 -2 2 -54 -28 -114 -66
-61 -39 -117 -71 -125 -71 -7 0 -32 27 -55 59 -157 224 -367 382 -617 466 -86
29 -259 66 -303 64 l-27 -1 25 -7z"/>
<path d="M1387 979 c-48 -39 -87 -78 -87 -86 0 -8 16 -49 36 -91 20 -42 58
-133 86 -202 27 -69 56 -131 65 -137 22 -17 263 -18 263 -2 0 7 -29 76 -65
155 -36 79 -65 145 -65 148 0 2 -20 46 -44 97 -24 52 -53 115 -64 142 -12 26
-25 47 -29 47 -5 0 -48 -32 -96 -71z"/>
</g>
</svg>
